<svg width="302" height="230" viewBox="0 0 302 230" fill="none" xmlns="http://www.w3.org/2000/svg">
<g clip-path="url(#clip0_912_19735)">
<path d="M31.9287 57.9372V210.929V212.113H45.0429H53.3448L56.2748 210.929H314.504V37.9263H62.0737V42.7514L31.9287 57.9372Z" stroke="#1B1B1E"/>
<path d="M32 58H325" stroke="#1B1B1E"/>
<rect x="40.5" y="90.5" width="65" height="36" stroke="#1B1B1E"/>
<circle cx="58" cy="107" r="8.5" stroke="#4516FF"/>
<rect x="115.5" y="90.5" width="65" height="36" stroke="#1B1B1E"/>
<circle cx="132" cy="107" r="8.5" stroke="#4516FF"/>
<rect x="40.5" y="167.5" width="65" height="36" stroke="#1B1B1E"/>
<circle cx="58" cy="184" r="8.5" stroke="#4516FF"/>
<rect x="115.5" y="167.5" width="65" height="36" stroke="#1B1B1E"/>
<circle cx="132" cy="184" r="8.5" stroke="#4516FF"/>
<rect x="89.5" y="62.5312" width="17" height="8" stroke="#4516FF"/>
<rect x="112.5" y="62.5312" width="17" height="8" stroke="#4516FF"/>
<rect x="63.5" y="58.0312" width="91" height="17" stroke="#1B1B1E"/>
<rect x="40.5" y="58.0312" width="140" height="27" stroke="#1B1B1E"/>
<rect x="89.5" y="144.5" width="17" height="8" stroke="#4516FF"/>
<rect x="112.5" y="144.5" width="17" height="8" stroke="#4516FF"/>
<rect x="40.5" y="135.5" width="140" height="27" stroke="#1B1B1E"/>
<path d="M32 135.5H312" stroke="#1B1B1E"/>
<rect x="202.5" y="103.091" width="13" height="12" stroke="#4516FF"/>
<rect x="219.5" y="103.091" width="13" height="12" stroke="#1B1B1E"/>
<rect x="236.5" y="103.091" width="13" height="12" stroke="#1B1B1E"/>
<rect x="276.5" y="103.091" width="5" height="12" stroke="#4516FF"/>
<rect x="267.5" y="103.091" width="5" height="12" stroke="#4516FF"/>
<rect x="196.5" y="97.0908" width="91" height="24" stroke="#1B1B1E"/>
<rect x="202.5" y="185.5" width="13" height="12" stroke="#4516FF"/>
<rect x="219.5" y="185.5" width="13" height="12" stroke="#1B1B1E"/>
<rect x="236.5" y="185.5" width="13" height="12" stroke="#1B1B1E"/>
<rect x="276.5" y="185.5" width="5" height="12" stroke="#4516FF"/>
<rect x="267.5" y="185.5" width="5" height="12" stroke="#4516FF"/>
<rect x="196.5" y="179.5" width="91" height="24" stroke="#1B1B1E"/>
<rect x="210.5" y="63.0312" width="13" height="8" stroke="#1B1B1E"/>
<rect x="196.5" y="58.0312" width="91" height="34" stroke="#1B1B1E"/>
<rect x="223.5" y="79.0312" width="17" height="8" stroke="#1B1B1E"/>
<rect x="244.5" y="79.0312" width="17" height="8" stroke="#1B1B1E"/>
<rect x="227.5" y="63.0312" width="13" height="8" stroke="#1B1B1E"/>
<rect x="244.5" y="63.0312" width="13" height="8" stroke="#1B1B1E"/>
<rect x="261.5" y="63.0312" width="13" height="8" stroke="#1B1B1E"/>
<rect x="210.5" y="140.523" width="13" height="8" stroke="#1B1B1E"/>
<rect x="196.5" y="135.523" width="91" height="34" stroke="#1B1B1E"/>
<rect x="223.5" y="156.523" width="17" height="8" stroke="#1B1B1E"/>
<rect x="244.5" y="156.523" width="17" height="8" stroke="#1B1B1E"/>
<rect x="227.5" y="140.523" width="13" height="8" stroke="#1B1B1E"/>
<rect x="244.5" y="140.523" width="13" height="8" stroke="#1B1B1E"/>
<rect x="261.5" y="140.523" width="13" height="8" stroke="#1B1B1E"/>
</g>
<defs>
<clipPath id="clip0_912_19735">
<rect width="302" height="230" fill="white"/>
</clipPath>
</defs>
</svg>
