<svg width="276" height="159" viewBox="0 0 276 159" fill="none" xmlns="http://www.w3.org/2000/svg">
<g clip-path="url(#clip0_5181_425)">
<path d="M27.6951 72.0289V143.319L44.9201 143.318M27.6951 72.0289L31.4975 68.7193L48.1287 68.7193H47.9578L177.42 68.7193L277.678 68.7192V70.5597M27.6951 72.0289H44.9201M44.9201 143.318L47.2024 142.227L48.0301 141.632H50.6617L52.87 142.227H89.5283L91.7367 142.843H104.545L106.5 142.227H171.552H237.199H277.678V70.5597M44.9201 143.318V72.0289M44.9201 72.0289L46.3969 70.5597H277.678" stroke="#1B1B1E"/>
<path d="M28.1245 111.156H44.7284" stroke="#1B1B1E"/>
<path d="M28.1245 141.046H44.4309" stroke="#4516FF"/>
<circle cx="32.5" cy="82.8429" r="3" stroke="#4516FF"/>
<circle cx="40.5" cy="82.8429" r="3" stroke="#4516FF"/>
<path d="M128 119.343L128 139.343" stroke="#4516FF"/>
<path d="M125 119.343V139.343" stroke="#4516FF"/>
<rect x="56.5" y="118.843" width="89" height="21" stroke="#1B1B1E"/>
<rect x="74.5" y="122.843" width="13" height="13" stroke="#1B1B1E"/>
<rect x="90.5" y="122.843" width="13" height="13" stroke="#1B1B1E"/>
<rect x="106.5" y="122.843" width="13" height="13" stroke="#1B1B1E"/>
<path d="M220 119.343L220 139.343" stroke="#4516FF"/>
<path d="M217 119.343V139.343" stroke="#4516FF"/>
<rect x="148.5" y="118.843" width="89" height="21" stroke="#1B1B1E"/>
<rect x="166.5" y="122.843" width="13" height="13" stroke="#1B1B1E"/>
<rect x="182.5" y="122.843" width="13" height="13" stroke="#1B1B1E"/>
<rect x="198.5" y="122.843" width="13" height="13" stroke="#1B1B1E"/>
<rect x="240.5" y="118.843" width="89" height="21" stroke="#1B1B1E"/>
<rect x="258.5" y="122.843" width="13" height="13" stroke="#1B1B1E"/>
<rect x="274.5" y="122.843" width="13" height="13" stroke="#1B1B1E"/>
<path d="M128 96.3429L128 116.343" stroke="#4516FF"/>
<path d="M125 96.3429V116.343" stroke="#4516FF"/>
<rect x="56.5" y="95.8429" width="89" height="21" stroke="#1B1B1E"/>
<rect x="74.5" y="99.8429" width="13" height="13" stroke="#1B1B1E"/>
<rect x="90.5" y="99.8429" width="13" height="13" stroke="#1B1B1E"/>
<rect x="106.5" y="99.8429" width="13" height="13" stroke="#1B1B1E"/>
<path d="M220 96.3429L220 116.343" stroke="#4516FF"/>
<path d="M217 96.3429V116.343" stroke="#4516FF"/>
<rect x="148.5" y="95.8429" width="89" height="21" stroke="#1B1B1E"/>
<rect x="166.5" y="99.8429" width="13" height="13" stroke="#1B1B1E"/>
<rect x="182.5" y="99.8429" width="13" height="13" stroke="#1B1B1E"/>
<rect x="198.5" y="99.8429" width="13" height="13" stroke="#1B1B1E"/>
<rect x="240.5" y="95.8429" width="89" height="21" stroke="#1B1B1E"/>
<rect x="258.5" y="99.8429" width="13" height="13" stroke="#1B1B1E"/>
<rect x="274.5" y="99.8429" width="13" height="13" stroke="#1B1B1E"/>
<path d="M128 73.3429L128 93.3429" stroke="#4516FF"/>
<path d="M125 73.3429V93.3429" stroke="#4516FF"/>
<rect x="56.5" y="72.8429" width="89" height="21" stroke="#1B1B1E"/>
<rect x="74.5" y="76.8429" width="13" height="13" stroke="#1B1B1E"/>
<rect x="90.5" y="76.8429" width="13" height="13" stroke="#1B1B1E"/>
<rect x="106.5" y="76.8429" width="13" height="13" stroke="#1B1B1E"/>
<path d="M220 73.3429L220 93.3429" stroke="#4516FF"/>
<path d="M217 73.3429V93.3429" stroke="#4516FF"/>
<rect x="148.5" y="72.8429" width="89" height="21" stroke="#1B1B1E"/>
<rect x="166.5" y="76.8429" width="13" height="13" stroke="#1B1B1E"/>
<rect x="182.5" y="76.8429" width="13" height="13" stroke="#1B1B1E"/>
<rect x="198.5" y="76.8429" width="13" height="13" stroke="#1B1B1E"/>
<rect x="240.5" y="72.8429" width="89" height="21" stroke="#1B1B1E"/>
<rect x="258.5" y="76.8429" width="13" height="13" stroke="#1B1B1E"/>
<rect x="274.5" y="76.8429" width="13" height="13" stroke="#1B1B1E"/>
</g>
<defs>
<clipPath id="clip0_5181_425">
<rect width="275" height="159" fill="white" transform="translate(0.311523)"/>
</clipPath>
</defs>
</svg>
