<svg width="276" height="159" viewBox="0 0 276 159" fill="none" xmlns="http://www.w3.org/2000/svg">
<g clip-path="url(#clip0_5181_480)">
<path d="M25 140L42.2781 140" stroke="#4516FF"/>
<path d="M25.261 72.2787V143.5H42.4432V72.2787M25.261 72.2787L29.5775 68.5H42.7998H150.881H227.312H278.312V70.6394M25.261 72.2787H42.4432M42.4432 139.208H54.2476H55.9311H83.8772L85.5607 139.5H95.3251L97.1288 139.208H196.055H278.312V70.6394M42.4432 72.2787L44.3318 70.352L278.312 70.6394" stroke="#1B1B1E"/>
<circle cx="29.5691" cy="83.5" r="2.5" stroke="#4516FF"/>
<circle cx="36.5691" cy="83.5" r="2.5" stroke="#4516FF"/>
<path d="M25.261 111L43.3115 111" stroke="#1B1B1E"/>
<path d="M51 123L65 123" stroke="#4516FF"/>
<path d="M51 121L65 121" stroke="#4516FF"/>
<path d="M51.5 74.5H64.5V135.5H51.5V74.5Z" stroke="#1B1B1E"/>
<rect x="54.5" y="108.5" width="7" height="8" stroke="#1B1B1E"/>
<rect x="54.5" y="97.5" width="7" height="8" stroke="#1B1B1E"/>
<rect x="54.5" y="86.5" width="7" height="8" stroke="#1B1B1E"/>
<path d="M111 123L125 123" stroke="#4516FF"/>
<path d="M111 121L125 121" stroke="#4516FF"/>
<path d="M111.5 74.5H124.5V135.5H111.5V74.5Z" stroke="#1B1B1E"/>
<rect x="114.5" y="108.5" width="7" height="8" stroke="#1B1B1E"/>
<rect x="114.5" y="97.5" width="7" height="8" stroke="#1B1B1E"/>
<rect x="114.5" y="86.5" width="7" height="8" stroke="#1B1B1E"/>
<path d="M81 123L95 123" stroke="#4516FF"/>
<path d="M81 121L95 121" stroke="#4516FF"/>
<path d="M81.5 74.5H94.5V135.5H81.5V74.5Z" stroke="#1B1B1E"/>
<rect x="84.5" y="108.5" width="7" height="8" stroke="#1B1B1E"/>
<rect x="84.5" y="97.5" width="7" height="8" stroke="#1B1B1E"/>
<rect x="84.5" y="86.5" width="7" height="8" stroke="#1B1B1E"/>
<path d="M66 123L80 123" stroke="#4516FF"/>
<path d="M66 121L80 121" stroke="#4516FF"/>
<path d="M66.5 74.5H79.5V135.5H66.5V74.5Z" stroke="#1B1B1E"/>
<rect x="69.5" y="108.5" width="7" height="8" stroke="#1B1B1E"/>
<rect x="69.5" y="97.5" width="7" height="8" stroke="#1B1B1E"/>
<rect x="69.5" y="86.5" width="7" height="8" stroke="#1B1B1E"/>
<path d="M126 123L140 123" stroke="#4516FF"/>
<path d="M126 121L140 121" stroke="#4516FF"/>
<path d="M126.5 74.5H139.5V135.5H126.5V74.5Z" stroke="#1B1B1E"/>
<rect x="129.5" y="108.5" width="7" height="8" stroke="#1B1B1E"/>
<rect x="129.5" y="97.5" width="7" height="8" stroke="#1B1B1E"/>
<rect x="129.5" y="86.5" width="7" height="8" stroke="#1B1B1E"/>
<path d="M96 123L110 123" stroke="#4516FF"/>
<path d="M96 121L110 121" stroke="#4516FF"/>
<path d="M96.5 74.5H109.5V135.5H96.5V74.5Z" stroke="#1B1B1E"/>
<rect x="99.5" y="108.5" width="7" height="8" stroke="#1B1B1E"/>
<rect x="99.5" y="97.5" width="7" height="8" stroke="#1B1B1E"/>
<rect x="99.5" y="86.5" width="7" height="8" stroke="#1B1B1E"/>
<path d="M141 123L155 123" stroke="#4516FF"/>
<path d="M141 121L155 121" stroke="#4516FF"/>
<path d="M141.5 74.5H154.5V135.5H141.5V74.5Z" stroke="#1B1B1E"/>
<rect x="144.5" y="108.5" width="7" height="8" stroke="#1B1B1E"/>
<rect x="144.5" y="97.5" width="7" height="8" stroke="#1B1B1E"/>
<rect x="144.5" y="86.5" width="7" height="8" stroke="#1B1B1E"/>
<path d="M201 123L215 123" stroke="#4516FF"/>
<path d="M201 121L215 121" stroke="#4516FF"/>
<path d="M201.5 74.5H214.5V135.5H201.5V74.5Z" stroke="#1B1B1E"/>
<rect x="204.5" y="108.5" width="7" height="8" stroke="#1B1B1E"/>
<rect x="204.5" y="97.5" width="7" height="8" stroke="#1B1B1E"/>
<rect x="204.5" y="86.5" width="7" height="8" stroke="#1B1B1E"/>
<path d="M171 123L185 123" stroke="#4516FF"/>
<path d="M171 121L185 121" stroke="#4516FF"/>
<path d="M171.5 74.5H184.5V135.5H171.5V74.5Z" stroke="#1B1B1E"/>
<rect x="174.5" y="108.5" width="7" height="8" stroke="#1B1B1E"/>
<rect x="174.5" y="97.5" width="7" height="8" stroke="#1B1B1E"/>
<rect x="174.5" y="86.5" width="7" height="8" stroke="#1B1B1E"/>
<path d="M156 123L170 123" stroke="#4516FF"/>
<path d="M156 121L170 121" stroke="#4516FF"/>
<path d="M156.5 74.5H169.5V135.5H156.5V74.5Z" stroke="#1B1B1E"/>
<rect x="159.5" y="108.5" width="7" height="8" stroke="#1B1B1E"/>
<rect x="159.5" y="97.5" width="7" height="8" stroke="#1B1B1E"/>
<rect x="159.5" y="86.5" width="7" height="8" stroke="#1B1B1E"/>
<path d="M216 123L230 123" stroke="#4516FF"/>
<path d="M216 121L230 121" stroke="#4516FF"/>
<path d="M216.5 74.5H229.5V135.5H216.5V74.5Z" stroke="#1B1B1E"/>
<rect x="219.5" y="108.5" width="7" height="8" stroke="#1B1B1E"/>
<rect x="219.5" y="97.5" width="7" height="8" stroke="#1B1B1E"/>
<rect x="219.5" y="86.5" width="7" height="8" stroke="#1B1B1E"/>
<path d="M186 123L200 123" stroke="#4516FF"/>
<path d="M186 121L200 121" stroke="#4516FF"/>
<path d="M186.5 74.5H199.5V135.5H186.5V74.5Z" stroke="#1B1B1E"/>
<rect x="189.5" y="108.5" width="7" height="8" stroke="#1B1B1E"/>
<rect x="189.5" y="97.5" width="7" height="8" stroke="#1B1B1E"/>
<rect x="189.5" y="86.5" width="7" height="8" stroke="#1B1B1E"/>
<path d="M231 123L245 123" stroke="#4516FF"/>
<path d="M231 121L245 121" stroke="#4516FF"/>
<path d="M231.5 74.5H244.5V135.5H231.5V74.5Z" stroke="#1B1B1E"/>
<rect x="234.5" y="108.5" width="7" height="8" stroke="#1B1B1E"/>
<rect x="234.5" y="97.5" width="7" height="8" stroke="#1B1B1E"/>
<rect x="234.5" y="86.5" width="7" height="8" stroke="#1B1B1E"/>
<path d="M261 123L275 123" stroke="#4516FF"/>
<path d="M261 121L275 121" stroke="#4516FF"/>
<path d="M261.5 74.5H274.5V135.5H261.5V74.5Z" stroke="#1B1B1E"/>
<rect x="264.5" y="108.5" width="7" height="8" stroke="#1B1B1E"/>
<rect x="264.5" y="97.5" width="7" height="8" stroke="#1B1B1E"/>
<rect x="264.5" y="86.5" width="7" height="8" stroke="#1B1B1E"/>
<path d="M246 123L260 123" stroke="#4516FF"/>
<path d="M246 121L260 121" stroke="#4516FF"/>
<path d="M246.5 74.5H259.5V135.5H246.5V74.5Z" stroke="#1B1B1E"/>
<rect x="249.5" y="108.5" width="7" height="8" stroke="#1B1B1E"/>
<rect x="249.5" y="97.5" width="7" height="8" stroke="#1B1B1E"/>
<rect x="249.5" y="86.5" width="7" height="8" stroke="#1B1B1E"/>
</g>
<defs>
<clipPath id="clip0_5181_480">
<rect width="275" height="159" fill="white" transform="translate(0.311523)"/>
</clipPath>
</defs>
</svg>
