<svg width="275" height="159" viewBox="0 0 275 159" fill="none" xmlns="http://www.w3.org/2000/svg">
<g clip-path="url(#clip0_5181_45)">
<path d="M27.3232 5.28845L27.7639 143.09H44.5107M27.3232 5.28845L32.363 0.881397H47.5957H176.722H276.762V3.08492M27.3232 5.28845H44.5107M44.5107 143.09L46.7881 141.179L47.6141 140.585H50.2399H52.4434H89.022L91.2255 141.466H104.006L104.887 141.026L235.777 140.585H276.762V3.08492M44.5107 143.09V5.28845M44.5107 5.28845L47.155 3.08492H276.762" stroke="#1B1B1E"/>
<path d="M51 3V141" stroke="#1B1B1E"/>
<circle cx="33" cy="15" r="2.5" stroke="#4516FF"/>
<path d="M27.7518 37.0192H44.3196" stroke="#1B1B1E"/>
<path d="M27.7518 113H44.2804" stroke="#4516FF"/>
<path d="M32.7051 0.0757084L31.436 1.10302L31.3865 0.0998095L32.7051 0.0757084Z" fill="#F4F4F4"/>
<rect x="54.5" y="8.5" width="247" height="57" stroke="#1B1B1E"/>
<path d="M123 70L123 90" stroke="#4516FF"/>
<path d="M120 70V90" stroke="#4516FF"/>
<rect x="72.5" y="73.6579" width="12" height="12.6842" stroke="#1B1B1E"/>
<rect x="87.5" y="73.6579" width="12" height="12.6842" stroke="#1B1B1E"/>
<rect x="102.5" y="73.6579" width="12" height="12.6842" stroke="#1B1B1E"/>
<rect x="54.5" y="70.5" width="85" height="19" stroke="#1B1B1E"/>
<path d="M211 70L211 90" stroke="#4516FF"/>
<path d="M208 70V90" stroke="#4516FF"/>
<rect x="160.5" y="73.6579" width="12" height="12.6842" stroke="#1B1B1E"/>
<rect x="175.5" y="73.6579" width="12" height="12.6842" stroke="#1B1B1E"/>
<rect x="190.5" y="73.6579" width="12" height="12.6842" stroke="#1B1B1E"/>
<rect x="142.5" y="70.5" width="85" height="19" stroke="#1B1B1E"/>
<rect x="248.5" y="73.6579" width="12" height="12.6842" stroke="#1B1B1E"/>
<rect x="263.5" y="73.6579" width="12" height="12.6842" stroke="#1B1B1E"/>
<rect x="230.5" y="70.5" width="85" height="19" stroke="#1B1B1E"/>
<path d="M123 92L123 112" stroke="#4516FF"/>
<path d="M120 92V112" stroke="#4516FF"/>
<rect x="72.5" y="95.6579" width="12" height="12.6842" stroke="#1B1B1E"/>
<rect x="87.5" y="95.6579" width="12" height="12.6842" stroke="#1B1B1E"/>
<rect x="102.5" y="95.6579" width="12" height="12.6842" stroke="#1B1B1E"/>
<rect x="54.5" y="92.5" width="85" height="19" stroke="#1B1B1E"/>
<path d="M211 92L211 112" stroke="#4516FF"/>
<path d="M208 92V112" stroke="#4516FF"/>
<rect x="160.5" y="95.6579" width="12" height="12.6842" stroke="#1B1B1E"/>
<rect x="175.5" y="95.6579" width="12" height="12.6842" stroke="#1B1B1E"/>
<rect x="190.5" y="95.6579" width="12" height="12.6842" stroke="#1B1B1E"/>
<rect x="142.5" y="92.5" width="85" height="19" stroke="#1B1B1E"/>
<rect x="248.5" y="95.6579" width="12" height="12.6842" stroke="#1B1B1E"/>
<rect x="263.5" y="95.6579" width="12" height="12.6842" stroke="#1B1B1E"/>
<rect x="230.5" y="92.5" width="85" height="19" stroke="#1B1B1E"/>
<path d="M123 114L123 134" stroke="#4516FF"/>
<path d="M120 114V134" stroke="#4516FF"/>
<rect x="72.5" y="117.658" width="12" height="12.6842" stroke="#1B1B1E"/>
<rect x="87.5" y="117.658" width="12" height="12.6842" stroke="#1B1B1E"/>
<rect x="102.5" y="117.658" width="12" height="12.6842" stroke="#1B1B1E"/>
<rect x="54.5" y="114.5" width="85" height="19" stroke="#1B1B1E"/>
<path d="M211 114L211 134" stroke="#4516FF"/>
<path d="M208 114V134" stroke="#4516FF"/>
<rect x="160.5" y="117.658" width="12" height="12.6842" stroke="#1B1B1E"/>
<rect x="175.5" y="117.658" width="12" height="12.6842" stroke="#1B1B1E"/>
<rect x="190.5" y="117.658" width="12" height="12.6842" stroke="#1B1B1E"/>
<rect x="142.5" y="114.5" width="85" height="19" stroke="#1B1B1E"/>
<rect x="248.5" y="117.658" width="12" height="12.6842" stroke="#1B1B1E"/>
<rect x="263.5" y="117.658" width="12" height="12.6842" stroke="#1B1B1E"/>
<rect x="230.5" y="114.5" width="85" height="19" stroke="#1B1B1E"/>
</g>
<defs>
<clipPath id="clip0_5181_45">
<rect width="275" height="159" fill="white"/>
</clipPath>
</defs>
</svg>
