<svg width="275" height="159" viewBox="0 0 275 159" fill="none" xmlns="http://www.w3.org/2000/svg">
<g clip-path="url(#clip0_5181_111)">
<path d="M27.3232 5.28844L27.7639 144.5H44.5107M27.3232 5.28844L32.363 0.881393H47.5957H176.722H276.762V3.08492M27.3232 5.28844H44.5107M44.5107 144.5L46.5 142.5H47.6141H50.2399H52.4434H89.022H91.2255H104.006H104.887L235.777 142.059H276.762V3.08492M44.5107 144.5V5.28844M44.5107 5.28844L47.155 3.08492H276.762" stroke="#1B1B1E"/>
<path d="M50 3L50 143" stroke="#1B1B1E"/>
<circle cx="32" cy="15" r="2.5" stroke="#4516FF"/>
<path d="M50 32L279 32" stroke="#1B1B1E"/>
<path d="M27.7518 37.0192H44.3196" stroke="#1B1B1E"/>
<path d="M27 114H43.5286" stroke="#4516FF"/>
<rect x="61.5" y="41.5" width="103" height="91" stroke="#1B1B1E"/>
<rect x="178.5" y="41.5" width="100" height="91" stroke="#1B1B1E"/>
<rect x="53.5" y="5.5" width="66" height="9" stroke="#1B1B1E"/>
<rect x="66.5" y="7.5" width="10" height="5" stroke="#1B1B1E"/>
<rect x="78.5" y="7.5" width="10" height="5" stroke="#1B1B1E"/>
<rect x="90.5" y="7.5" width="10" height="5" stroke="#1B1B1E"/>
<path d="M103.5 6V14.5H105.5V6" stroke="#4516FF"/>
<rect x="125.5" y="5.5" width="67" height="9" stroke="#1B1B1E"/>
<rect x="138.5" y="7.5" width="10" height="5" stroke="#1B1B1E"/>
<rect x="150.5" y="7.5" width="10" height="5" stroke="#1B1B1E"/>
<rect x="162.5" y="7.5" width="10" height="5" stroke="#1B1B1E"/>
<path d="M175.5 6V14.5H177.5V6" stroke="#4516FF"/>
<rect x="196.5" y="5.5" width="67" height="9" stroke="#1B1B1E"/>
<rect x="210.5" y="7.5" width="10" height="5" stroke="#1B1B1E"/>
<rect x="222.5" y="7.5" width="10" height="5" stroke="#1B1B1E"/>
<rect x="234.5" y="7.5" width="10" height="5" stroke="#1B1B1E"/>
<path d="M247.5 6V14.5H249.5V6" stroke="#4516FF"/>
<rect x="267.5" y="5.5" width="67" height="9" stroke="#1B1B1E"/>
<rect x="53.5" y="17.5" width="66" height="9" stroke="#1B1B1E"/>
<rect x="66.5" y="19.5" width="10" height="5" stroke="#1B1B1E"/>
<rect x="78.5" y="19.5" width="10" height="5" stroke="#1B1B1E"/>
<rect x="90.5" y="19.5" width="10" height="5" stroke="#1B1B1E"/>
<path d="M103.5 18V26.5H105.5V18" stroke="#4516FF"/>
<rect x="196.5" y="17.5" width="67" height="9" stroke="#1B1B1E"/>
<rect x="210.5" y="19.5" width="10" height="5" stroke="#1B1B1E"/>
<rect x="222.5" y="19.5" width="10" height="5" stroke="#1B1B1E"/>
<rect x="234.5" y="19.5" width="10" height="5" stroke="#1B1B1E"/>
<path d="M247.5 18V26.5H249.5V18" stroke="#4516FF"/>
<rect x="125.5" y="17.5" width="67" height="9" stroke="#1B1B1E"/>
<rect x="138.5" y="19.5" width="10" height="5" stroke="#1B1B1E"/>
<rect x="150.5" y="19.5" width="10" height="5" stroke="#1B1B1E"/>
<rect x="162.5" y="19.5" width="10" height="5" stroke="#1B1B1E"/>
<path d="M175.5 18V26.5H177.5V18" stroke="#4516FF"/>
<rect x="267.5" y="17.5" width="67" height="9" stroke="#1B1B1E"/>
</g>
<defs>
<clipPath id="clip0_5181_111">
<rect width="275" height="159" fill="white"/>
</clipPath>
</defs>
</svg>
