<svg width="302" height="230" viewBox="0 0 302 230" fill="none" xmlns="http://www.w3.org/2000/svg">
<g clip-path="url(#clip0_455_9601)">
<path d="M37.5 212.838H34V85.6387V82.0433L52 74.8379H314V83.8379M37.5 212.838H314V203.838M37.5 212.838V203.838M37.5 203.838L38.5 200.838M37.5 203.838H314M38.5 200.838H314M38.5 200.838V83.8379H314M314 200.838V203.838M314 200.838V83.8379" stroke="#1B1B1E"/>
<rect x="50.5" y="92.3379" width="23" height="14" stroke="#4516FF"/>
<rect x="73.5" y="92.3379" width="24" height="14" stroke="#4516FF"/>
<rect x="97.5" y="92.3379" width="23" height="14" stroke="#4516FF"/>
<rect x="120.5" y="92.3379" width="23" height="14" stroke="#4516FF"/>
<rect x="143.5" y="92.3379" width="24" height="14" stroke="#4516FF"/>
<rect x="167.5" y="92.3379" width="24" height="14" stroke="#4516FF"/>
<rect x="191.5" y="92.3379" width="23" height="14" stroke="#4516FF"/>
<rect x="214.5" y="92.3379" width="23" height="14" stroke="#4516FF"/>
<rect x="50.5" y="117.338" width="23" height="14" stroke="#1B1B1E"/>
<rect x="73.5" y="117.338" width="24" height="14" stroke="#1B1B1E"/>
<rect x="97.5" y="117.338" width="23" height="14" stroke="#1B1B1E"/>
<rect x="120.5" y="117.338" width="23" height="14" stroke="#1B1B1E"/>
<rect x="143.5" y="117.338" width="24" height="14" stroke="#1B1B1E"/>
<rect x="167.5" y="117.338" width="24" height="14" stroke="#1B1B1E"/>
<rect x="191.5" y="117.338" width="23" height="14" stroke="#1B1B1E"/>
<rect x="214.5" y="117.338" width="23" height="14" stroke="#1B1B1E"/>
<rect x="50.5" y="142.338" width="23" height="14" stroke="#1B1B1E"/>
<rect x="73.5" y="142.338" width="24" height="14" stroke="#1B1B1E"/>
<rect x="97.5" y="142.338" width="23" height="14" stroke="#1B1B1E"/>
<rect x="120.5" y="142.338" width="23" height="14" stroke="#1B1B1E"/>
<rect x="143.5" y="142.338" width="24" height="14" stroke="#1B1B1E"/>
<rect x="167.5" y="142.338" width="24" height="14" stroke="#1B1B1E"/>
<rect x="191.5" y="142.338" width="23" height="14" stroke="#1B1B1E"/>
<rect x="214.5" y="142.338" width="23" height="14" stroke="#1B1B1E"/>
<rect x="50.5" y="167.338" width="23" height="14" stroke="#1B1B1E"/>
<rect x="73.5" y="167.338" width="24" height="14" stroke="#1B1B1E"/>
<rect x="97.5" y="167.338" width="23" height="14" stroke="#1B1B1E"/>
<rect x="120.5" y="167.338" width="23" height="14" stroke="#1B1B1E"/>
<rect x="143.5" y="167.338" width="24" height="14" stroke="#1B1B1E"/>
<rect x="167.5" y="167.338" width="24" height="14" stroke="#1B1B1E"/>
<rect x="191.5" y="167.338" width="23" height="14" stroke="#1B1B1E"/>
<rect x="214.5" y="167.338" width="23" height="14" stroke="#1B1B1E"/>
<rect x="99.5" y="188.338" width="8" height="7" stroke="#4516FF"/>
<rect x="123.5" y="188.338" width="8" height="7" stroke="#4516FF"/>
<rect x="146.5" y="188.338" width="8" height="7" stroke="#4516FF"/>
<rect x="242.5" y="92.5" width="23" height="14" stroke="#4516FF"/>
<rect x="265.5" y="92.5" width="24" height="14" stroke="#4516FF"/>
<rect x="289.5" y="92.5" width="23" height="14" stroke="#4516FF"/>
<rect x="242.5" y="117.5" width="23" height="14" stroke="#1B1B1E"/>
<rect x="265.5" y="117.5" width="24" height="14" stroke="#1B1B1E"/>
<rect x="289.5" y="117.5" width="23" height="14" stroke="#1B1B1E"/>
<rect x="242.5" y="142.5" width="23" height="14" stroke="#1B1B1E"/>
<rect x="265.5" y="142.5" width="24" height="14" stroke="#1B1B1E"/>
<rect x="289.5" y="142.5" width="23" height="14" stroke="#1B1B1E"/>
<rect x="242.5" y="167.5" width="23" height="14" stroke="#1B1B1E"/>
<rect x="265.5" y="167.5" width="24" height="14" stroke="#1B1B1E"/>
<rect x="289.5" y="167.5" width="23" height="14" stroke="#1B1B1E"/>
</g>
<defs>
<clipPath id="clip0_455_9601">
<rect width="302" height="230" fill="white"/>
</clipPath>
</defs>
</svg>
