<svg width="275" height="159" viewBox="0 0 275 159" fill="none" xmlns="http://www.w3.org/2000/svg">
<g clip-path="url(#clip0_5181_154)">
<path d="M23 112H39.5286" stroke="#4516FF"/>
<path d="M23 6.00005V142.788H40M23 6.00005L28.5 2.50005H47H175.105L276.763 2.50005V4.50005M23 6.00005H40M40 142.788L42 140.585H47.615H50.2409H52.4444H89.0229H91.2265H104.007H104.888H235.778H276.763V4.50005M40 142.788V6.00005M40 6.00005L42.218 4.00005H159.132L276.763 4.50005" stroke="#1B1B1E"/>
<circle cx="28" cy="16" r="2.5" stroke="#4516FF"/>
<circle cx="35" cy="16" r="2.5" stroke="#4516FF"/>
<path d="M113 6L113 26" stroke="#4516FF"/>
<path d="M110 6V26" stroke="#4516FF"/>
<rect x="62.5" y="9.65789" width="12" height="12.6842" stroke="#1B1B1E"/>
<rect x="77.5" y="9.65789" width="12" height="12.6842" stroke="#1B1B1E"/>
<rect x="92.5" y="9.65789" width="12" height="12.6842" stroke="#1B1B1E"/>
<rect x="48.5" y="6.5" width="81" height="19" stroke="#1B1B1E"/>
<path d="M113 28L113 48" stroke="#4516FF"/>
<path d="M110 28V48" stroke="#4516FF"/>
<rect x="62.5" y="31.6579" width="12" height="12.6842" stroke="#1B1B1E"/>
<rect x="77.5" y="31.6579" width="12" height="12.6842" stroke="#1B1B1E"/>
<rect x="92.5" y="31.6579" width="12" height="12.6842" stroke="#1B1B1E"/>
<rect x="48.5" y="28.5" width="81" height="19" stroke="#1B1B1E"/>
<path d="M113 50L113 70" stroke="#4516FF"/>
<path d="M110 50V70" stroke="#4516FF"/>
<rect x="62.5" y="53.6579" width="12" height="12.6842" stroke="#1B1B1E"/>
<rect x="77.5" y="53.6579" width="12" height="12.6842" stroke="#1B1B1E"/>
<rect x="92.5" y="53.6579" width="12" height="12.6842" stroke="#1B1B1E"/>
<rect x="48.5" y="50.5" width="81" height="19" stroke="#1B1B1E"/>
<path d="M113 72L113 92" stroke="#4516FF"/>
<path d="M110 72V92" stroke="#4516FF"/>
<rect x="62.5" y="75.6579" width="12" height="12.6842" stroke="#1B1B1E"/>
<rect x="77.5" y="75.6579" width="12" height="12.6842" stroke="#1B1B1E"/>
<rect x="92.5" y="75.6579" width="12" height="12.6842" stroke="#1B1B1E"/>
<rect x="48.5" y="72.5" width="81" height="19" stroke="#1B1B1E"/>
<path d="M113 94L113 114" stroke="#4516FF"/>
<path d="M110 94V114" stroke="#4516FF"/>
<rect x="62.5" y="97.6579" width="12" height="12.6842" stroke="#1B1B1E"/>
<rect x="77.5" y="97.6579" width="12" height="12.6842" stroke="#1B1B1E"/>
<rect x="92.5" y="97.6579" width="12" height="12.6842" stroke="#1B1B1E"/>
<rect x="48.5" y="94.5" width="81" height="19" stroke="#1B1B1E"/>
<path d="M113 116L113 136" stroke="#4516FF"/>
<path d="M110 116V136" stroke="#4516FF"/>
<rect x="62.5" y="119.658" width="12" height="12.6842" stroke="#1B1B1E"/>
<rect x="77.5" y="119.658" width="12" height="12.6842" stroke="#1B1B1E"/>
<rect x="92.5" y="119.658" width="12" height="12.6842" stroke="#1B1B1E"/>
<rect x="48.5" y="116.5" width="81" height="19" stroke="#1B1B1E"/>
<path d="M197 6L197 26" stroke="#4516FF"/>
<path d="M194 6V26" stroke="#4516FF"/>
<rect x="146.5" y="9.65789" width="12" height="12.6842" stroke="#1B1B1E"/>
<rect x="161.5" y="9.65789" width="12" height="12.6842" stroke="#1B1B1E"/>
<rect x="176.5" y="9.65789" width="12" height="12.6842" stroke="#1B1B1E"/>
<rect x="132.5" y="6.5" width="81" height="19" stroke="#1B1B1E"/>
<path d="M197 28L197 48" stroke="#4516FF"/>
<path d="M194 28V48" stroke="#4516FF"/>
<rect x="146.5" y="31.6579" width="12" height="12.6842" stroke="#1B1B1E"/>
<rect x="161.5" y="31.6579" width="12" height="12.6842" stroke="#1B1B1E"/>
<rect x="176.5" y="31.6579" width="12" height="12.6842" stroke="#1B1B1E"/>
<rect x="132.5" y="28.5" width="81" height="19" stroke="#1B1B1E"/>
<path d="M197 50L197 70" stroke="#4516FF"/>
<path d="M194 50V70" stroke="#4516FF"/>
<rect x="146.5" y="53.6579" width="12" height="12.6842" stroke="#1B1B1E"/>
<rect x="161.5" y="53.6579" width="12" height="12.6842" stroke="#1B1B1E"/>
<rect x="176.5" y="53.6579" width="12" height="12.6842" stroke="#1B1B1E"/>
<rect x="132.5" y="50.5" width="81" height="19" stroke="#1B1B1E"/>
<path d="M197 72L197 92" stroke="#4516FF"/>
<path d="M194 72V92" stroke="#4516FF"/>
<rect x="146.5" y="75.6579" width="12" height="12.6842" stroke="#1B1B1E"/>
<rect x="161.5" y="75.6579" width="12" height="12.6842" stroke="#1B1B1E"/>
<rect x="176.5" y="75.6579" width="12" height="12.6842" stroke="#1B1B1E"/>
<rect x="132.5" y="72.5" width="81" height="19" stroke="#1B1B1E"/>
<path d="M197 94L197 114" stroke="#4516FF"/>
<path d="M194 94V114" stroke="#4516FF"/>
<rect x="146.5" y="97.6579" width="12" height="12.6842" stroke="#1B1B1E"/>
<rect x="161.5" y="97.6579" width="12" height="12.6842" stroke="#1B1B1E"/>
<rect x="176.5" y="97.6579" width="12" height="12.6842" stroke="#1B1B1E"/>
<rect x="132.5" y="94.5" width="81" height="19" stroke="#1B1B1E"/>
<path d="M197 116L197 136" stroke="#4516FF"/>
<path d="M194 116V136" stroke="#4516FF"/>
<rect x="146.5" y="119.658" width="12" height="12.6842" stroke="#1B1B1E"/>
<rect x="161.5" y="119.658" width="12" height="12.6842" stroke="#1B1B1E"/>
<rect x="176.5" y="119.658" width="12" height="12.6842" stroke="#1B1B1E"/>
<rect x="132.5" y="116.5" width="81" height="19" stroke="#1B1B1E"/>
<rect x="230.5" y="9.65789" width="12" height="12.6842" stroke="#1B1B1E"/>
<rect x="245.5" y="9.65789" width="12" height="12.6842" stroke="#1B1B1E"/>
<rect x="260.5" y="9.65789" width="12" height="12.6842" stroke="#1B1B1E"/>
<rect x="216.5" y="6.5" width="81" height="19" stroke="#1B1B1E"/>
<rect x="230.5" y="31.6579" width="12" height="12.6842" stroke="#1B1B1E"/>
<rect x="245.5" y="31.6579" width="12" height="12.6842" stroke="#1B1B1E"/>
<rect x="260.5" y="31.6579" width="12" height="12.6842" stroke="#1B1B1E"/>
<rect x="216.5" y="28.5" width="81" height="19" stroke="#1B1B1E"/>
<rect x="230.5" y="53.6579" width="12" height="12.6842" stroke="#1B1B1E"/>
<rect x="245.5" y="53.6579" width="12" height="12.6842" stroke="#1B1B1E"/>
<rect x="260.5" y="53.6579" width="12" height="12.6842" stroke="#1B1B1E"/>
<rect x="216.5" y="50.5" width="81" height="19" stroke="#1B1B1E"/>
<rect x="230.5" y="75.6579" width="12" height="12.6842" stroke="#1B1B1E"/>
<rect x="245.5" y="75.6579" width="12" height="12.6842" stroke="#1B1B1E"/>
<rect x="260.5" y="75.6579" width="12" height="12.6842" stroke="#1B1B1E"/>
<rect x="216.5" y="72.5" width="81" height="19" stroke="#1B1B1E"/>
<rect x="230.5" y="97.6579" width="12" height="12.6842" stroke="#1B1B1E"/>
<rect x="245.5" y="97.6579" width="12" height="12.6842" stroke="#1B1B1E"/>
<rect x="260.5" y="97.6579" width="12" height="12.6842" stroke="#1B1B1E"/>
<rect x="216.5" y="94.5" width="81" height="19" stroke="#1B1B1E"/>
<rect x="230.5" y="119.658" width="12" height="12.6842" stroke="#1B1B1E"/>
<rect x="245.5" y="119.658" width="12" height="12.6842" stroke="#1B1B1E"/>
<rect x="260.5" y="119.658" width="12" height="12.6842" stroke="#1B1B1E"/>
<rect x="216.5" y="116.5" width="81" height="19" stroke="#1B1B1E"/>
</g>
<defs>
<clipPath id="clip0_5181_154">
<rect width="275" height="159" fill="white"/>
</clipPath>
</defs>
</svg>
