<svg width="100" height="28" viewBox="0 0 100 28" fill="none" xmlns="http://www.w3.org/2000/svg">
<path fill-rule="evenodd" clip-rule="evenodd" d="M62.3626 13.5773L62.3626 13.5649C62.3627 13.5193 62.3631 13.4735 62.364 13.4275C62.3631 13.4777 62.3626 13.5276 62.3626 13.5773ZM62.5944 11.6715C62.5944 11.6715 62.5944 11.6715 62.5944 11.6715V11.6715ZM50.5288 16.2556V20.9316H47.1849V6.89104H56.4842C58.6823 6.89104 60.0615 7.38936 60.8924 8.17776C61.7195 8.96258 62.0554 10.0849 62.0554 11.4554V11.6715C62.0554 13.0086 61.7072 14.1383 60.8703 14.9376C60.0306 15.7394 58.65 16.2556 56.4842 16.2556H50.5288ZM40.5991 9.6541V20.9316H37.2742V9.6541H31.7962V6.89104H46.0771V9.6541H40.5991ZM56.1989 9.57551H50.5288V13.5711H56.1989C56.9568 13.5711 57.5532 13.4071 57.9632 13.0582C58.3818 12.7019 58.5593 12.1934 58.5593 11.6126V11.534C58.5593 10.9617 58.3811 10.4545 57.9641 10.0966C57.5549 9.74528 56.9588 9.57551 56.1989 9.57551ZM88.0532 9.55586H84.6086V18.2471H88.0532C90.4731 18.2471 91.8642 17.6372 92.6397 16.7435C93.4102 15.8556 93.514 14.7525 93.514 13.9113V13.7934C93.514 12.9495 93.3997 11.8696 92.6219 11.0064C91.841 10.1399 90.4516 9.55586 88.0532 9.55586ZM30.696 6.89104V20.9316H27.3521V6.89104H30.696ZM70.8649 6.65527H71.7018C74.9515 6.65527 76.9932 7.63713 78.2248 8.96758C79.4614 10.3033 79.9169 12.0287 79.9169 13.5773V14.1667C79.9169 15.6855 79.4616 17.432 78.223 18.7957C76.9902 20.1531 74.9485 21.1674 71.7018 21.1674H70.8649C67.6182 21.1674 65.5765 20.1531 64.3437 18.7957C63.1051 17.432 62.6498 15.6855 62.6498 14.1667V13.5773C62.6498 12.0388 63.1052 10.3132 64.342 8.97476C65.5738 7.64177 67.6156 6.65527 70.8649 6.65527ZM76.4208 14.0096V13.7345C76.4208 12.7903 76.1976 11.7015 75.4179 10.8478C74.6338 9.98921 73.3328 9.41833 71.2833 9.41833C69.252 9.41833 67.9519 9.98968 67.1636 10.8471C66.3797 11.6998 66.1459 12.7879 66.1459 13.7345V14.0096C66.1459 14.9406 66.3959 16.0405 67.1836 16.9101C67.9767 17.7858 69.2754 18.3847 71.2833 18.3847C73.3275 18.3847 74.628 17.7867 75.4129 16.9087C76.1921 16.037 76.4208 14.936 76.4208 14.0096ZM81.2647 20.9316V6.89104H88.2244C91.8672 6.89104 94.0522 7.83606 95.3271 9.09476C96.6023 10.3538 97.0101 11.9695 97.0101 13.4005V13.9899C97.0101 15.4876 96.6934 17.2109 95.4684 18.56C94.2476 19.9044 92.0746 20.9316 88.2434 20.9316H81.2647Z" fill="white"/>
<path d="M3.04053 20.9495V17.913L12.1083 14.0245L21.361 17.913V20.9495L12.1083 24.9609L3.04053 20.9495Z" fill="#58DEFF"/>
<path d="M3.04053 16.1183V13.0818L12.1083 9.19331L21.361 13.0818V16.1183L12.1083 20.1297L3.04053 16.1183Z" fill="#9A5EFF"/>
<path d="M12.1091 20.1294L12.1155 24.961L21.3613 20.9503V17.9237L19.2562 17.0287L12.1091 20.1294Z" fill="#80F2FF"/>
<path d="M12.1074 20.1284V15.2978L19.2627 12.1996L21.3618 13.0833V16.1173L12.1074 20.1284Z" fill="#C588FF"/>
<path d="M3.04053 11.2871V6.88617L12.1083 2.99767L21.361 6.88617V11.2871L12.1083 15.2984L3.04053 11.2871Z" fill="#4010FF"/>
<path d="M12.0895 10.8838L12.1087 15.2978L21.3657 11.2905L21.3617 6.88658L12.0895 10.8838Z" fill="#4E13FF"/>
<path d="M21.3636 6.88755L12.1026 10.8784L3.04119 6.88605L12.1063 2.99731L21.3636 6.88755Z" fill="#4B2FFF"/>
<path d="M12.1048 20.131V15.299L13.601 14.6516L19.2616 17.0277L12.1048 20.131Z" fill="#CD9AFF"/>
<path d="M12.0895 20.131L12.1041 15.2978L10.6287 14.6442L5.10239 17.0305L12.0895 20.131Z" fill="#A46EFF"/>
</svg>
