<svg width="592" height="165" viewBox="0 0 592 165" fill="none" xmlns="http://www.w3.org/2000/svg">
<path fill-rule="evenodd" clip-rule="evenodd" d="M369.187 80.0094L369.187 79.9363C369.187 79.6674 369.19 79.3975 369.195 79.1267C369.189 79.4221 369.187 79.7163 369.187 80.0094ZM370.559 68.7786C370.559 68.7784 370.559 68.7787 370.559 68.7786ZM299.131 95.7919V123.347H279.334V40.6081H334.386C347.399 40.6081 355.564 43.5446 360.483 48.1905C365.379 52.8154 367.368 59.4289 367.368 67.5053V68.7789C367.368 76.658 365.307 83.3154 360.352 88.025C355.381 92.7502 347.208 95.7919 334.386 95.7919H299.131ZM240.347 56.8904V123.347H220.663V56.8904H188.234V40.6081H272.776V56.8904H240.347ZM332.697 56.4273H299.131V79.9727H332.697C337.184 79.9727 340.715 79.0065 343.142 76.9503C345.62 74.8507 346.671 71.8542 346.671 68.4316V67.9685C346.671 64.596 345.616 61.6069 343.147 59.4977C340.725 57.4277 337.196 56.4273 332.697 56.4273ZM521.275 56.3115H500.883V107.528H521.275C535.601 107.528 543.836 103.934 548.427 98.6669C552.988 93.4347 553.603 86.9343 553.603 81.9776V81.283C553.603 76.3099 552.926 69.9462 548.321 64.8593C543.699 59.7532 535.473 56.3115 521.275 56.3115ZM181.72 40.6081V123.347H161.924V40.6081H181.72ZM419.52 39.2188H424.474C443.713 39.2188 455.8 45.0047 463.091 52.8448C470.411 60.7161 473.108 70.8833 473.108 80.0094V83.4828C473.108 92.4323 470.412 102.724 463.08 110.761C455.782 118.759 443.695 124.737 424.474 124.737H419.52C400.3 124.737 388.213 118.759 380.914 110.761C373.582 102.724 370.887 92.4323 370.887 83.4828V80.0094C370.887 70.9428 373.582 60.7742 380.905 52.8872C388.197 45.032 400.284 39.2188 419.52 39.2188ZM452.411 82.5565V80.9356C452.411 75.3714 451.09 68.9555 446.474 63.9247C441.832 58.8652 434.13 55.5011 421.997 55.5011C409.972 55.5011 402.275 58.8679 397.609 63.9205C392.967 68.9454 391.584 75.3575 391.584 80.9356V82.5565C391.584 88.0433 393.064 94.5245 397.727 99.6491C402.422 104.809 410.11 108.338 421.997 108.338C434.099 108.338 441.798 104.815 446.444 99.6408C451.057 94.5042 452.411 88.016 452.411 82.5565ZM481.087 123.347V40.6081H522.288C543.854 40.6081 556.789 46.1769 564.336 53.5943C571.886 61.0137 574.3 70.5345 574.3 78.9674V82.4408C574.3 91.2661 572.425 101.421 565.173 109.371C557.946 117.294 545.082 123.347 522.401 123.347H481.087Z" fill="#1B1B1E"/>
<path d="M18.542 123.451V105.614L72.0521 82.7727L126.654 105.614V123.451L72.0521 147.014L18.542 123.451Z" fill="#58DEFF"/>
<path d="M18.542 95.0721V77.2353L72.0521 54.3939L126.654 77.2353V95.0721L72.0521 118.635L18.542 95.0721Z" fill="#9A5EFF"/>
<path d="M72.0574 118.634L72.0949 147.015L126.656 123.456V105.677L114.233 100.42L72.0574 118.634Z" fill="#80F2FF"/>
<path d="M114.253 100.425L72.056 118.635L30.7024 100.425L72.056 82.7727L114.253 100.425Z" fill="#A46FFF"/>
<path d="M18.542 66.6926V40.8414L72.0521 18L126.654 40.8414V66.6926L72.0521 90.2559L18.542 66.6926Z" fill="#4010FF"/>
<path d="M114.256 72.0332L126.648 77.217V95.0538L72.0908 118.598V90.2784L114.256 72.0332Z" fill="#C588FF"/>
<path d="M114.253 100.425L72.0559 118.635V100.335V82.7727L92.929 91.5045L114.253 100.425Z" fill="#CD9AFF"/>
<path d="M72.0908 64.0143V90.2394L126.652 66.6804V40.8386L72.0908 64.0143Z" fill="#621BFF"/>
<path d="M126.658 40.8425L72.1103 64.1999L18.5 40.804L71.9224 18L99.1786 29.402L126.658 40.8425Z" fill="#4B2FFF"/>
</svg>
