<svg width="85" height="24" viewBox="0 0 85 24" fill="none" xmlns="http://www.w3.org/2000/svg">
<path fill-rule="evenodd" clip-rule="evenodd" d="M53.0082 11.6377L53.0082 11.6271C53.0083 11.588 53.0087 11.5487 53.0094 11.5093C53.0086 11.5523 53.0082 11.5951 53.0082 11.6377ZM53.2053 10.0041C53.2053 10.0042 53.2053 10.0041 53.2053 10.0041V10.0041ZM42.9495 13.9334V17.9414H40.1072V5.90661H48.0116C49.88 5.90661 51.0523 6.33374 51.7585 7.00952C52.4616 7.68222 52.7471 8.64418 52.7471 9.81894V10.0042C52.7471 11.1502 52.4512 12.1186 51.7398 12.8036C51.0261 13.4909 49.8525 13.9334 48.0116 13.9334H42.9495ZM34.5093 8.27495V17.9414H31.6831V8.27495H27.0268V5.90661H39.1655V8.27495H34.5093ZM47.769 8.20759H42.9495V11.6324H47.769C48.4133 11.6324 48.9203 11.4918 49.2687 11.1928C49.6246 10.8874 49.7754 10.4515 49.7754 9.95367V9.8863C49.7754 9.39576 49.6239 8.96098 49.2695 8.6542C48.9217 8.3531 48.415 8.20759 47.769 8.20759ZM74.8453 8.19075H71.9174V15.6404H74.8453C76.9022 15.6404 78.0846 15.1176 78.7438 14.3515C79.3987 13.5905 79.4869 12.645 79.4869 11.924V11.823C79.4869 11.0996 79.3898 10.174 78.7286 9.43406C78.0649 8.69135 76.8839 8.19075 74.8453 8.19075ZM26.0916 5.90661V17.9414H23.2493V5.90661H26.0916ZM60.2352 5.70453H60.9465C63.7088 5.70453 65.4442 6.54612 66.4911 7.68651C67.5422 8.83142 67.9294 10.3103 67.9294 11.6377V12.1429C67.9294 13.4447 67.5423 14.9417 66.4896 16.1106C65.4417 17.2741 63.7062 18.1435 60.9465 18.1435H60.2352C57.4755 18.1435 55.74 17.2741 54.6921 16.1106C53.6394 14.9417 53.2523 13.4447 53.2523 12.1429V11.6377C53.2523 10.3189 53.6394 8.83987 54.6907 7.69266C55.7378 6.5501 57.4733 5.70453 60.2352 5.70453ZM64.9577 12.0082V11.7724C64.9577 10.9631 64.768 10.0299 64.1053 9.29812C63.4387 8.56219 62.3329 8.07287 60.5908 8.07287C58.8642 8.07287 57.7592 8.56259 57.0891 9.29752C56.4227 10.0284 56.224 10.9611 56.224 11.7724V12.0082C56.224 12.8063 56.4365 13.749 57.1061 14.4944C57.7802 15.2449 58.8841 15.7583 60.5908 15.7583C62.3284 15.7583 63.4339 15.2458 64.101 14.4932C64.7633 13.746 64.9577 12.8023 64.9577 12.0082ZM69.075 17.9414V5.90661H74.9908C78.0871 5.90661 79.9444 6.71663 81.028 7.79551C82.112 8.87471 82.4586 10.2596 82.4586 11.4862V11.9914C82.4586 13.2751 82.1894 14.7522 81.1481 15.9085C80.1105 17.0609 78.2634 17.9414 75.0069 17.9414H69.075Z" fill="white"/>
<path d="M2.58447 17.9568V15.3541L10.2921 12.0211L18.1569 15.3541V17.9568L10.2921 21.3952L2.58447 17.9568Z" fill="#58DEFF"/>
<path d="M2.58447 13.8158V11.2131L10.2921 7.88007L18.1569 11.2131V13.8158L10.2921 17.2541L2.58447 13.8158Z" fill="#9A5EFF"/>
<path d="M10.2928 17.2539L10.2982 21.3952L18.1572 17.9575V15.3633L16.3678 14.5961L10.2928 17.2539Z" fill="#80F2FF"/>
<path d="M10.2913 17.253V13.1125L16.3733 10.4569L18.1575 11.2143V13.8149L10.2913 17.253Z" fill="#C588FF"/>
<path d="M2.58447 9.67471V5.90252L10.2921 2.56952L18.1569 5.90252V9.67471L10.2921 13.113L2.58447 9.67471Z" fill="#4010FF"/>
<path d="M10.2761 9.32903L10.2924 13.1125L18.1609 9.67764L18.1574 5.90287L10.2761 9.32903Z" fill="#4E13FF"/>
<path d="M18.159 5.9037L10.2872 9.32446L2.58504 5.90242L10.2903 2.56921L18.159 5.9037Z" fill="#4B2FFF"/>
<path d="M10.2891 17.2552V13.1135L11.5608 12.5586L16.3724 14.5953L10.2891 17.2552Z" fill="#CD9AFF"/>
<path d="M10.2761 17.2552L10.2885 13.1125L9.03442 12.5523L4.33706 14.5977L10.2761 17.2552Z" fill="#A46EFF"/>
</svg>
