<svg width="16" height="16" viewBox="0 0 16 16" fill="none" xmlns="http://www.w3.org/2000/svg">
<g clip-path="url(#clip0_4958_15164)">
<path fill-rule="evenodd" clip-rule="evenodd" d="M4.79948 1.1167C5.07562 1.1167 5.29948 1.34056 5.29948 1.6167V2.2167H10.6995V1.6167C10.6995 1.34056 10.9233 1.1167 11.1995 1.1167C11.4756 1.1167 11.6995 1.34056 11.6995 1.6167V2.2167H13.6661C14.3289 2.2167 14.8661 2.75396 14.8661 3.4167V13.6834C14.8661 14.3461 14.3289 14.8834 13.6661 14.8834H2.33281C1.67007 14.8834 1.13281 14.3461 1.13281 13.6834V3.4167C1.13281 2.75396 1.67007 2.2167 2.33281 2.2167H4.29948V1.6167C4.29948 1.34056 4.52334 1.1167 4.79948 1.1167ZM10.6995 3.2167V3.75003C10.6995 4.02618 10.9233 4.25003 11.1995 4.25003C11.4756 4.25003 11.6995 4.02618 11.6995 3.75003V3.2167H13.6661C13.7766 3.2167 13.8661 3.30624 13.8661 3.4167V5.4167H2.13281V3.4167C2.13281 3.30624 2.22236 3.2167 2.33281 3.2167H4.29948V3.75003C4.29948 4.02618 4.52334 4.25003 4.79948 4.25003C5.07562 4.25003 5.29948 4.02618 5.29948 3.75003V3.2167H10.6995ZM2.13281 6.4167V13.6834C2.13281 13.7938 2.22236 13.8834 2.33281 13.8834H13.6661C13.7766 13.8834 13.8661 13.7938 13.8661 13.6834V6.4167H2.13281ZM7.46615 8.0167C7.46615 7.72215 7.70493 7.48337 7.99948 7.48337C8.29403 7.48337 8.53281 7.72215 8.53281 8.0167C8.53281 8.31125 8.29403 8.55003 7.99948 8.55003C7.70493 8.55003 7.46615 8.31125 7.46615 8.0167ZM10.1328 7.48337C9.83826 7.48337 9.59948 7.72215 9.59948 8.0167C9.59948 8.31125 9.83826 8.55003 10.1328 8.55003C10.4274 8.55003 10.6661 8.31125 10.6661 8.0167C10.6661 7.72215 10.4274 7.48337 10.1328 7.48337ZM11.7328 8.0167C11.7328 7.72215 11.9716 7.48337 12.2661 7.48337C12.5607 7.48337 12.7995 7.72215 12.7995 8.0167C12.7995 8.31125 12.5607 8.55003 12.2661 8.55003C11.9716 8.55003 11.7328 8.31125 11.7328 8.0167ZM12.2661 9.6167C11.9716 9.6167 11.7328 9.85548 11.7328 10.15C11.7328 10.4446 11.9716 10.6834 12.2661 10.6834C12.5607 10.6834 12.7995 10.4446 12.7995 10.15C12.7995 9.85548 12.5607 9.6167 12.2661 9.6167ZM9.59948 10.15C9.59948 9.85548 9.83826 9.6167 10.1328 9.6167C10.4274 9.6167 10.6661 9.85548 10.6661 10.15C10.6661 10.4446 10.4274 10.6834 10.1328 10.6834C9.83826 10.6834 9.59948 10.4446 9.59948 10.15ZM7.99948 9.6167C7.70493 9.6167 7.46615 9.85548 7.46615 10.15C7.46615 10.4446 7.70493 10.6834 7.99948 10.6834C8.29403 10.6834 8.53281 10.4446 8.53281 10.15C8.53281 9.85548 8.29403 9.6167 7.99948 9.6167ZM5.33281 10.15C5.33281 9.85548 5.57159 9.6167 5.86615 9.6167C6.1607 9.6167 6.39948 9.85548 6.39948 10.15C6.39948 10.4446 6.1607 10.6834 5.86615 10.6834C5.57159 10.6834 5.33281 10.4446 5.33281 10.15ZM3.73281 9.6167C3.43826 9.6167 3.19948 9.85548 3.19948 10.15C3.19948 10.4446 3.43826 10.6834 3.73281 10.6834C4.02736 10.6834 4.26615 10.4446 4.26615 10.15C4.26615 9.85548 4.02736 9.6167 3.73281 9.6167ZM3.19948 12.2834C3.19948 11.9888 3.43826 11.75 3.73281 11.75C4.02736 11.75 4.26615 11.9888 4.26615 12.2834C4.26615 12.5779 4.02736 12.8167 3.73281 12.8167C3.43826 12.8167 3.19948 12.5779 3.19948 12.2834ZM5.86615 11.75C5.57159 11.75 5.33281 11.9888 5.33281 12.2834C5.33281 12.5779 5.57159 12.8167 5.86615 12.8167C6.1607 12.8167 6.39948 12.5779 6.39948 12.2834C6.39948 11.9888 6.1607 11.75 5.86615 11.75ZM7.46615 12.2834C7.46615 11.9888 7.70493 11.75 7.99948 11.75C8.29403 11.75 8.53281 11.9888 8.53281 12.2834C8.53281 12.5779 8.29403 12.8167 7.99948 12.8167C7.70493 12.8167 7.46615 12.5779 7.46615 12.2834ZM10.1328 11.75C9.83826 11.75 9.59948 11.9888 9.59948 12.2834C9.59948 12.5779 9.83826 12.8167 10.1328 12.8167C10.4274 12.8167 10.6661 12.5779 10.6661 12.2834C10.6661 11.9888 10.4274 11.75 10.1328 11.75Z" fill="#1D1D22" fill-opacity="0.6"/>
</g>
<defs>
<clipPath id="clip0_4958_15164">
<rect width="16" height="16" fill="white"/>
</clipPath>
</defs>
</svg>
