<svg width="16" height="16" viewBox="0 0 16 16" fill="none" xmlns="http://www.w3.org/2000/svg">
<path d="M3.74813 2.6822L3.74814 2.6822L3.74937 2.68102C6.09445 0.43966 9.90555 0.43966 12.2506 2.68102L12.2519 2.6822C12.8062 3.20845 13.2459 3.83626 13.5458 4.52833C13.8457 5.22035 14 5.9631 14 6.71304C14 7.46298 13.8457 8.20573 13.5458 8.89776C13.2459 9.58982 12.8062 10.2176 12.2519 10.7439L12.2506 10.7451L7.99962 14.8083L3.74942 10.7451L3.74813 10.7439C3.19375 10.2176 2.75407 9.58982 2.45416 8.89776C2.15427 8.20573 2 7.46298 2 6.71304C2 5.9631 2.15427 5.22035 2.45416 4.52833C2.75407 3.83626 3.19375 3.20845 3.74813 2.6822Z" stroke="#1B1B1E"/>
</svg>
